<svg xmlns="http://www.w3.org/2000/svg" width="37" height="41" viewBox="0 0 37 41" fill="none">
  <path d="M34.8067 11.3375C24.936 6.41126 14.3916 7.75925 10.1666 11.1292C5.45164 14.8913 5.35367 21.1166 8.78271 24.168C-0.904341 20.8715 -0.977821 12.2321 1.66744 8.06561C5.966 1.25214 20.6497 -1.98304 34.8067 3.48245V11.3253V11.3375Z" fill="#EE2A23" stroke="#EE2A23" stroke-width="1" />
  <path id="animatedPath" d="M0.00223682 26.8272C1.74125 28.2365 5.75813 30.0746 10.2649 31.0182C17.9925 32.6358 26.9815 32.1211 27.0305 25.6753V20.5774H20.8092V26.141C16.7801 26.4963 13.2041 24.4376 12.9714 20.5652C12.8367 18.1878 14.0613 16.2761 15.9351 15.1855C19.1804 13.3228 25.022 13.4821 29.5778 15.9207C39.0934 21.0431 38.3586 33.0647 29.9819 37.7704C19.7927 43.5055 3.68846 39.4003 -0.0100098 37.7704V26.8149L0.00223682 26.8272Z" fill="#233E86" stroke="#233E86" stroke-width="1" />
</svg>
